<mxfile host="app.diagrams.net" modified="2020-08-12T10:07:40.448Z" agent="5.0 (Macintosh; Intel Mac OS X 10_15_4) AppleWebKit/537.36 (KHTML, like Gecko) Chrome/84.0.4147.89 Safari/537.36" etag="eRfACdborjUxYG9gkcTi" version="13.6.2" type="github">
  <diagram id="gAq9_eEWLWpcsNNy8KeX" name="My Answer">
    <mxGraphModel dx="2409" dy="612" grid="1" gridSize="10" guides="1" tooltips="1" connect="1" arrows="1" fold="1" page="1" pageScale="1" pageWidth="1654" pageHeight="1169" math="0" shadow="0">
      <root>
        <mxCell id="0" />
        <mxCell id="1" parent="0" />
        <mxCell id="t4xo15ltuLMJvpSh2PAa-2" value="Car Insurance Company" style="swimlane;html=1;horizontal=0;startSize=20;" vertex="1" parent="1">
          <mxGeometry x="-230" y="300" width="1170" height="750" as="geometry" />
        </mxCell>
        <mxCell id="t4xo15ltuLMJvpSh2PAa-3" value="Notification Department" style="swimlane;html=1;horizontal=0;swimlaneLine=0;startSize=23;" vertex="1" parent="t4xo15ltuLMJvpSh2PAa-2">
          <mxGeometry x="40" y="30" width="1100" height="220" as="geometry" />
        </mxCell>
        <mxCell id="t4xo15ltuLMJvpSh2PAa-7" style="edgeStyle=orthogonalEdgeStyle;rounded=0;orthogonalLoop=1;jettySize=auto;html=1;entryX=0;entryY=0.375;entryDx=0;entryDy=0;entryPerimeter=0;" edge="1" parent="t4xo15ltuLMJvpSh2PAa-3" source="t4xo15ltuLMJvpSh2PAa-5" target="t4xo15ltuLMJvpSh2PAa-6">
          <mxGeometry relative="1" as="geometry" />
        </mxCell>
        <mxCell id="t4xo15ltuLMJvpSh2PAa-5" value="Claim Submitted" style="shape=mxgraph.bpmn.shape;html=1;verticalLabelPosition=bottom;labelBackgroundColor=#ffffff;verticalAlign=top;align=center;perimeter=ellipsePerimeter;outlineConnect=0;outline=standard;symbol=general;" vertex="1" parent="t4xo15ltuLMJvpSh2PAa-3">
          <mxGeometry x="120" y="70" width="50" height="50" as="geometry" />
        </mxCell>
        <mxCell id="t4xo15ltuLMJvpSh2PAa-9" style="edgeStyle=orthogonalEdgeStyle;rounded=0;orthogonalLoop=1;jettySize=auto;html=1;exitX=1;exitY=0.5;exitDx=0;exitDy=0;entryX=0.008;entryY=0.425;entryDx=0;entryDy=0;entryPerimeter=0;" edge="1" parent="t4xo15ltuLMJvpSh2PAa-3" source="t4xo15ltuLMJvpSh2PAa-6" target="t4xo15ltuLMJvpSh2PAa-8">
          <mxGeometry relative="1" as="geometry" />
        </mxCell>
        <mxCell id="t4xo15ltuLMJvpSh2PAa-6" value="Document Check" style="shape=ext;rounded=1;html=1;whiteSpace=wrap;" vertex="1" parent="t4xo15ltuLMJvpSh2PAa-3">
          <mxGeometry x="320" y="65" width="120" height="80" as="geometry" />
        </mxCell>
        <mxCell id="t4xo15ltuLMJvpSh2PAa-8" value="Claim Register" style="shape=ext;rounded=1;html=1;whiteSpace=wrap;" vertex="1" parent="t4xo15ltuLMJvpSh2PAa-3">
          <mxGeometry x="960" y="70" width="120" height="90" as="geometry" />
        </mxCell>
        <mxCell id="t4xo15ltuLMJvpSh2PAa-10" value="Handling Department" style="swimlane;html=1;horizontal=0;swimlaneLine=0;" vertex="1" parent="t4xo15ltuLMJvpSh2PAa-2">
          <mxGeometry x="40" y="260" width="1100" height="460" as="geometry" />
        </mxCell>
        <mxCell id="t4xo15ltuLMJvpSh2PAa-14" style="edgeStyle=orthogonalEdgeStyle;rounded=0;orthogonalLoop=1;jettySize=auto;html=1;exitX=0;exitY=0.25;exitDx=0;exitDy=0;entryX=1;entryY=0.25;entryDx=0;entryDy=0;" edge="1" parent="t4xo15ltuLMJvpSh2PAa-10" source="t4xo15ltuLMJvpSh2PAa-11" target="t4xo15ltuLMJvpSh2PAa-13">
          <mxGeometry relative="1" as="geometry" />
        </mxCell>
        <mxCell id="t4xo15ltuLMJvpSh2PAa-11" value="Claim Check" style="shape=ext;rounded=1;html=1;whiteSpace=wrap;" vertex="1" parent="t4xo15ltuLMJvpSh2PAa-10">
          <mxGeometry x="960" y="85" width="120" height="80" as="geometry" />
        </mxCell>
        <mxCell id="t4xo15ltuLMJvpSh2PAa-16" style="edgeStyle=orthogonalEdgeStyle;rounded=0;orthogonalLoop=1;jettySize=auto;html=1;exitX=0;exitY=0.5;exitDx=0;exitDy=0;" edge="1" parent="t4xo15ltuLMJvpSh2PAa-10" source="t4xo15ltuLMJvpSh2PAa-13" target="t4xo15ltuLMJvpSh2PAa-15">
          <mxGeometry relative="1" as="geometry" />
        </mxCell>
        <mxCell id="t4xo15ltuLMJvpSh2PAa-13" value="Assessment" style="shape=ext;rounded=1;html=1;whiteSpace=wrap;" vertex="1" parent="t4xo15ltuLMJvpSh2PAa-10">
          <mxGeometry x="760" y="85" width="120" height="80" as="geometry" />
        </mxCell>
        <mxCell id="t4xo15ltuLMJvpSh2PAa-29" style="edgeStyle=orthogonalEdgeStyle;rounded=0;orthogonalLoop=1;jettySize=auto;html=1;exitX=0.25;exitY=0.25;exitDx=0;exitDy=0;exitPerimeter=0;entryX=0.75;entryY=0.25;entryDx=0;entryDy=0;entryPerimeter=0;" edge="1" parent="t4xo15ltuLMJvpSh2PAa-10" source="t4xo15ltuLMJvpSh2PAa-15" target="t4xo15ltuLMJvpSh2PAa-21">
          <mxGeometry relative="1" as="geometry" />
        </mxCell>
        <mxCell id="t4xo15ltuLMJvpSh2PAa-31" value="Passed" style="edgeLabel;html=1;align=center;verticalAlign=middle;resizable=0;points=[];" vertex="1" connectable="0" parent="t4xo15ltuLMJvpSh2PAa-29">
          <mxGeometry x="0.0571" y="3" relative="1" as="geometry">
            <mxPoint as="offset" />
          </mxGeometry>
        </mxCell>
        <mxCell id="t4xo15ltuLMJvpSh2PAa-15" value="" style="shape=mxgraph.bpmn.shape;html=1;verticalLabelPosition=bottom;labelBackgroundColor=#ffffff;verticalAlign=top;align=center;perimeter=rhombusPerimeter;background=gateway;outlineConnect=0;outline=none;symbol=exclusiveGw;" vertex="1" parent="t4xo15ltuLMJvpSh2PAa-10">
          <mxGeometry x="620" y="100" width="50" height="50" as="geometry" />
        </mxCell>
        <mxCell id="t4xo15ltuLMJvpSh2PAa-18" value="Repair Authorised" style="shape=ext;rounded=1;html=1;whiteSpace=wrap;" vertex="1" parent="t4xo15ltuLMJvpSh2PAa-10">
          <mxGeometry x="260" y="30" width="120" height="80" as="geometry" />
        </mxCell>
        <mxCell id="t4xo15ltuLMJvpSh2PAa-19" value="Payment Scheduled" style="shape=ext;rounded=1;html=1;whiteSpace=wrap;" vertex="1" parent="t4xo15ltuLMJvpSh2PAa-10">
          <mxGeometry x="260" y="120" width="120" height="80" as="geometry" />
        </mxCell>
        <mxCell id="t4xo15ltuLMJvpSh2PAa-23" style="edgeStyle=orthogonalEdgeStyle;rounded=0;orthogonalLoop=1;jettySize=auto;html=1;exitX=0.5;exitY=1;exitDx=0;exitDy=0;entryX=0.008;entryY=0.625;entryDx=0;entryDy=0;entryPerimeter=0;" edge="1" parent="t4xo15ltuLMJvpSh2PAa-10" source="t4xo15ltuLMJvpSh2PAa-20" target="t4xo15ltuLMJvpSh2PAa-22">
          <mxGeometry relative="1" as="geometry" />
        </mxCell>
        <mxCell id="t4xo15ltuLMJvpSh2PAa-24" style="edgeStyle=orthogonalEdgeStyle;rounded=0;orthogonalLoop=1;jettySize=auto;html=1;exitX=1;exitY=0.5;exitDx=0;exitDy=0;entryX=0;entryY=0.5;entryDx=0;entryDy=0;" edge="1" parent="t4xo15ltuLMJvpSh2PAa-10" source="t4xo15ltuLMJvpSh2PAa-20" target="t4xo15ltuLMJvpSh2PAa-19">
          <mxGeometry relative="1" as="geometry" />
        </mxCell>
        <mxCell id="t4xo15ltuLMJvpSh2PAa-25" style="edgeStyle=orthogonalEdgeStyle;rounded=0;orthogonalLoop=1;jettySize=auto;html=1;exitX=0.5;exitY=0;exitDx=0;exitDy=0;" edge="1" parent="t4xo15ltuLMJvpSh2PAa-10" source="t4xo15ltuLMJvpSh2PAa-20" target="t4xo15ltuLMJvpSh2PAa-18">
          <mxGeometry relative="1" as="geometry" />
        </mxCell>
        <mxCell id="t4xo15ltuLMJvpSh2PAa-36" style="edgeStyle=orthogonalEdgeStyle;rounded=0;orthogonalLoop=1;jettySize=auto;html=1;exitX=0;exitY=0.5;exitDx=0;exitDy=0;entryX=1;entryY=0.5;entryDx=0;entryDy=0;" edge="1" parent="t4xo15ltuLMJvpSh2PAa-10" source="t4xo15ltuLMJvpSh2PAa-20" target="t4xo15ltuLMJvpSh2PAa-35">
          <mxGeometry relative="1" as="geometry">
            <mxPoint x="175" y="190" as="targetPoint" />
          </mxGeometry>
        </mxCell>
        <mxCell id="t4xo15ltuLMJvpSh2PAa-20" value="" style="shape=mxgraph.bpmn.shape;html=1;verticalLabelPosition=bottom;labelBackgroundColor=#ffffff;verticalAlign=top;align=center;perimeter=rhombusPerimeter;background=gateway;outlineConnect=0;outline=none;symbol=parallelGw;" vertex="1" parent="t4xo15ltuLMJvpSh2PAa-10">
          <mxGeometry x="190" y="100" width="50" height="50" as="geometry" />
        </mxCell>
        <mxCell id="t4xo15ltuLMJvpSh2PAa-26" style="edgeStyle=orthogonalEdgeStyle;rounded=0;orthogonalLoop=1;jettySize=auto;html=1;exitX=0.5;exitY=0;exitDx=0;exitDy=0;entryX=1.017;entryY=0.388;entryDx=0;entryDy=0;entryPerimeter=0;" edge="1" parent="t4xo15ltuLMJvpSh2PAa-10" source="t4xo15ltuLMJvpSh2PAa-21" target="t4xo15ltuLMJvpSh2PAa-18">
          <mxGeometry relative="1" as="geometry">
            <mxPoint x="415" y="100" as="sourcePoint" />
          </mxGeometry>
        </mxCell>
        <mxCell id="t4xo15ltuLMJvpSh2PAa-27" style="edgeStyle=orthogonalEdgeStyle;rounded=0;orthogonalLoop=1;jettySize=auto;html=1;exitX=0;exitY=0.5;exitDx=0;exitDy=0;entryX=1.025;entryY=0.638;entryDx=0;entryDy=0;entryPerimeter=0;" edge="1" parent="t4xo15ltuLMJvpSh2PAa-10" source="t4xo15ltuLMJvpSh2PAa-21" target="t4xo15ltuLMJvpSh2PAa-19">
          <mxGeometry relative="1" as="geometry">
            <mxPoint x="390" y="125" as="sourcePoint" />
            <Array as="points">
              <mxPoint x="400" y="171" />
            </Array>
          </mxGeometry>
        </mxCell>
        <mxCell id="t4xo15ltuLMJvpSh2PAa-28" style="edgeStyle=orthogonalEdgeStyle;rounded=0;orthogonalLoop=1;jettySize=auto;html=1;exitX=0.5;exitY=1;exitDx=0;exitDy=0;entryX=1.042;entryY=0.588;entryDx=0;entryDy=0;entryPerimeter=0;" edge="1" parent="t4xo15ltuLMJvpSh2PAa-10" source="t4xo15ltuLMJvpSh2PAa-21" target="t4xo15ltuLMJvpSh2PAa-22">
          <mxGeometry relative="1" as="geometry">
            <mxPoint x="415" y="150" as="sourcePoint" />
          </mxGeometry>
        </mxCell>
        <mxCell id="t4xo15ltuLMJvpSh2PAa-21" value="" style="shape=mxgraph.bpmn.shape;html=1;verticalLabelPosition=bottom;labelBackgroundColor=#ffffff;verticalAlign=top;align=center;perimeter=rhombusPerimeter;background=gateway;outlineConnect=0;outline=none;symbol=parallelGw;" vertex="1" parent="t4xo15ltuLMJvpSh2PAa-10">
          <mxGeometry x="400" y="90" width="50" height="50" as="geometry" />
        </mxCell>
        <mxCell id="t4xo15ltuLMJvpSh2PAa-22" value="Letter to Customer" style="shape=ext;rounded=1;html=1;whiteSpace=wrap;" vertex="1" parent="t4xo15ltuLMJvpSh2PAa-10">
          <mxGeometry x="260" y="220" width="120" height="80" as="geometry" />
        </mxCell>
        <mxCell id="t4xo15ltuLMJvpSh2PAa-37" style="edgeStyle=orthogonalEdgeStyle;rounded=0;orthogonalLoop=1;jettySize=auto;html=1;exitX=0.5;exitY=1;exitDx=0;exitDy=0;entryX=0.5;entryY=0;entryDx=0;entryDy=0;" edge="1" parent="t4xo15ltuLMJvpSh2PAa-10" source="t4xo15ltuLMJvpSh2PAa-33" target="t4xo15ltuLMJvpSh2PAa-34">
          <mxGeometry relative="1" as="geometry" />
        </mxCell>
        <mxCell id="t4xo15ltuLMJvpSh2PAa-33" value="Letter to Customer" style="shape=ext;rounded=1;html=1;whiteSpace=wrap;" vertex="1" parent="t4xo15ltuLMJvpSh2PAa-10">
          <mxGeometry x="580" y="250" width="120" height="80" as="geometry" />
        </mxCell>
        <mxCell id="t4xo15ltuLMJvpSh2PAa-34" value="Claim Completed&lt;br&gt;" style="shape=mxgraph.bpmn.shape;html=1;verticalLabelPosition=bottom;labelBackgroundColor=#ffffff;verticalAlign=top;align=center;perimeter=ellipsePerimeter;outlineConnect=0;outline=end;symbol=general;" vertex="1" parent="t4xo15ltuLMJvpSh2PAa-10">
          <mxGeometry x="615" y="380" width="50" height="50" as="geometry" />
        </mxCell>
        <mxCell id="t4xo15ltuLMJvpSh2PAa-35" value="Claim Completed" style="shape=mxgraph.bpmn.shape;html=1;verticalLabelPosition=bottom;labelBackgroundColor=#ffffff;verticalAlign=top;align=center;perimeter=ellipsePerimeter;outlineConnect=0;outline=end;symbol=general;" vertex="1" parent="t4xo15ltuLMJvpSh2PAa-10">
          <mxGeometry x="90" y="135" width="50" height="50" as="geometry" />
        </mxCell>
        <mxCell id="t4xo15ltuLMJvpSh2PAa-30" style="edgeStyle=orthogonalEdgeStyle;rounded=0;orthogonalLoop=1;jettySize=auto;html=1;exitX=0.5;exitY=1;exitDx=0;exitDy=0;entryX=0.5;entryY=0;entryDx=0;entryDy=0;" edge="1" parent="t4xo15ltuLMJvpSh2PAa-10" source="t4xo15ltuLMJvpSh2PAa-15" target="t4xo15ltuLMJvpSh2PAa-33">
          <mxGeometry relative="1" as="geometry">
            <mxPoint x="565" y="150" as="targetPoint" />
          </mxGeometry>
        </mxCell>
        <mxCell id="t4xo15ltuLMJvpSh2PAa-32" value="Failed" style="edgeLabel;html=1;align=center;verticalAlign=middle;resizable=0;points=[];" vertex="1" connectable="0" parent="t4xo15ltuLMJvpSh2PAa-30">
          <mxGeometry x="0.1455" y="-3" relative="1" as="geometry">
            <mxPoint as="offset" />
          </mxGeometry>
        </mxCell>
        <mxCell id="t4xo15ltuLMJvpSh2PAa-12" style="edgeStyle=orthogonalEdgeStyle;rounded=0;orthogonalLoop=1;jettySize=auto;html=1;exitX=0.75;exitY=1;exitDx=0;exitDy=0;entryX=0.75;entryY=0;entryDx=0;entryDy=0;" edge="1" parent="t4xo15ltuLMJvpSh2PAa-2" source="t4xo15ltuLMJvpSh2PAa-8" target="t4xo15ltuLMJvpSh2PAa-11">
          <mxGeometry relative="1" as="geometry" />
        </mxCell>
        <mxCell id="t4xo15ltuLMJvpSh2PAa-41" value="Customer" style="swimlane;html=1;horizontal=0;startSize=20;" vertex="1" parent="1">
          <mxGeometry x="-230" y="30" width="810" height="240" as="geometry" />
        </mxCell>
        <mxCell id="t4xo15ltuLMJvpSh2PAa-42" value="Claim Documents&amp;nbsp;" style="shape=note;whiteSpace=wrap;size=16;html=1;dropTarget=0;" vertex="1" parent="t4xo15ltuLMJvpSh2PAa-41">
          <mxGeometry x="160" y="50" width="40" height="60" as="geometry" />
        </mxCell>
        <mxCell id="t4xo15ltuLMJvpSh2PAa-43" value="" style="html=1;shape=singleArrow;arrowWidth=0.4;arrowSize=0.4;outlineConnect=0;" vertex="1" parent="t4xo15ltuLMJvpSh2PAa-42">
          <mxGeometry width="14" height="14" relative="1" as="geometry">
            <mxPoint x="2" y="2" as="offset" />
          </mxGeometry>
        </mxCell>
        <mxCell id="t4xo15ltuLMJvpSh2PAa-46" value="" style="startArrow=oval;startFill=0;startSize=7;endArrow=block;endFill=0;endSize=10;dashed=1;html=1;exitX=0.5;exitY=1;exitDx=0;exitDy=0;exitPerimeter=0;entryX=0.5;entryY=0;entryDx=0;entryDy=0;" edge="1" parent="1" source="t4xo15ltuLMJvpSh2PAa-42" target="t4xo15ltuLMJvpSh2PAa-5">
          <mxGeometry width="100" relative="1" as="geometry">
            <mxPoint x="-55" y="140" as="sourcePoint" />
            <mxPoint x="-43.399999999999636" y="386.8399999999999" as="targetPoint" />
            <Array as="points">
              <mxPoint x="-50" y="380" />
            </Array>
          </mxGeometry>
        </mxCell>
      </root>
    </mxGraphModel>
  </diagram>
</mxfile>
